<svg xmlns="http://www.w3.org/2000/svg" width="100" height="100" viewBox="0 0 100 100" fill="none">
<g id="andaime 1" clip-path="url(#clip0_2_5)">
<path id="Vector" d="M28.577 2.41512C28.8503 2.41266 29.1235 2.41563 29.3967 2.42302C29.5411 2.42347 29.6856 2.42393 29.8345 2.42439C30.1395 2.42628 30.4446 2.4305 30.7495 2.43688C31.2174 2.44646 31.6848 2.44879 32.1527 2.44989C32.449 2.45262 32.7453 2.45576 33.0416 2.45935C33.1818 2.46039 33.3221 2.46143 33.4666 2.4625C34.4548 2.48605 34.4548 2.48605 34.8875 2.91875C34.8875 4.83687 34.8875 6.755 34.8875 8.73125C41.7927 8.73125 48.698 8.73125 55.8125 8.73125C55.8125 6.81312 55.8125 4.895 55.8125 2.91875C56.3658 2.36541 56.9171 2.46844 57.6584 2.46616C57.8027 2.46487 57.947 2.46358 58.0957 2.46225C58.401 2.46029 58.7064 2.45938 59.0118 2.45944C59.4792 2.4586 59.9463 2.45156 60.4137 2.44421C60.7102 2.44308 61.0068 2.44231 61.3033 2.44194C61.4432 2.43916 61.5831 2.43637 61.7272 2.43351C62.1229 2.43712 62.123 2.43712 62.7875 2.53125C63.3688 3.30625 63.3688 3.30625 63.3688 8.73125C70.2101 8.73125 77.0514 8.73125 84.1 8.73125C84.1 6.87706 84.1 5.02287 84.1 3.1125C84.7235 2.48898 84.8709 2.46264 85.707 2.45049C85.8421 2.45166 85.9771 2.45284 86.1162 2.45405C86.2559 2.4535 86.3956 2.45294 86.5396 2.45237C86.8347 2.45197 87.1298 2.45304 87.4249 2.45547C87.8765 2.45858 88.3279 2.4555 88.7795 2.45178C89.0664 2.45217 89.3532 2.45291 89.64 2.45405C89.7751 2.45288 89.9101 2.4517 90.0492 2.45049C90.9764 2.46396 90.9764 2.46396 91.4015 2.75417C91.7661 3.26704 91.7277 3.64495 91.7262 4.27101C91.7273 4.63412 91.7273 4.63412 91.7286 5.00457C91.7265 5.2733 91.7244 5.54203 91.7222 5.81076C91.7221 6.09336 91.7222 6.37595 91.7225 6.65854C91.7227 7.4263 91.7192 8.19401 91.7152 8.96175C91.7116 9.76387 91.7112 10.566 91.7105 11.3681C91.7087 12.8873 91.7039 14.4065 91.6981 15.9257C91.6916 17.6551 91.6884 19.3846 91.6855 21.114C91.6794 24.6719 91.6692 28.2297 91.6562 31.7875C91.8694 31.7845 92.0825 31.7814 92.302 31.7783C93.0935 31.7677 93.885 31.7611 94.6765 31.7556C95.0189 31.7526 95.3613 31.7487 95.7037 31.7436C96.1962 31.7366 96.6886 31.7333 97.1812 31.7307C97.334 31.7277 97.4868 31.7247 97.6442 31.7216C98.2762 31.7215 98.7437 31.7451 99.3094 32.0401C99.7807 32.573 99.7027 33.1774 99.6893 33.8529C99.6891 33.9974 99.6889 34.1419 99.6888 34.2907C99.6876 34.5957 99.6845 34.9008 99.6797 35.2058C99.6727 35.6736 99.6718 36.1411 99.6719 36.6089C99.67 36.9052 99.6677 37.2015 99.6651 37.4978C99.6646 37.6381 99.6642 37.7784 99.6638 37.9229C99.645 38.9113 99.645 38.9113 99.2125 39.3437C96.7189 39.3437 94.2254 39.3437 91.6562 39.3437C91.6562 46.1851 91.6562 53.0264 91.6562 60.075C93.958 60.075 96.2598 60.075 98.6312 60.075C98.9509 60.2668 99.2706 60.4586 99.6 60.6563C99.7008 61.1883 99.7362 61.6009 99.7287 62.1336C99.7296 62.2776 99.7305 62.4216 99.7315 62.57C99.7321 62.8742 99.7303 63.1785 99.7263 63.4827C99.7211 63.9485 99.7262 64.4135 99.7324 64.8794C99.7318 65.1751 99.7306 65.4707 99.7287 65.7664C99.7306 65.9057 99.7326 66.0449 99.7346 66.1884C99.7253 66.5823 99.7253 66.5823 99.6 67.2437C97.3234 68.6097 94.3112 67.825 91.6562 67.825C91.6562 74.6024 91.6562 81.3798 91.6562 88.3625C92.1677 88.3625 92.6793 88.3625 93.2063 88.3625C94.6022 88.7791 95.7291 89.6482 96.5 90.8812C97.1123 92.1746 97.1701 93.3011 97.1539 94.7199C97.1562 94.9206 97.1584 95.1213 97.1607 95.328C97.16 95.5202 97.1592 95.7124 97.1584 95.9104C97.1578 96.0842 97.1571 96.258 97.1565 96.437C97.0812 96.8875 97.0812 96.8875 96.8884 97.2016C96.2661 97.6297 95.5897 97.5494 94.8603 97.544C94.693 97.545 94.5256 97.546 94.3532 97.547C93.7993 97.5496 93.2455 97.5479 92.6916 97.5459C92.3072 97.5463 91.9228 97.5469 91.5384 97.5476C90.7325 97.5485 89.9267 97.5472 89.1208 97.5445C88.0867 97.5412 87.0528 97.5431 86.0188 97.5466C85.225 97.5487 84.4312 97.548 83.6373 97.5465C83.256 97.5461 82.8747 97.5466 82.4934 97.548C81.9609 97.5494 81.4285 97.5472 80.8959 97.544C80.7377 97.5451 80.5795 97.5463 80.4164 97.5475C79.3535 97.5355 79.3535 97.5355 78.8682 97.2023C78.4173 96.4676 78.5761 95.4811 78.5781 94.6473C78.5726 94.4443 78.5671 94.2414 78.5615 94.0323C78.5573 92.3691 78.9459 91.0992 80.0502 89.8345C80.1758 89.7364 80.3014 89.6382 80.4309 89.5371C80.557 89.4355 80.6831 89.3338 80.8131 89.2291C80.9387 89.1349 81.0643 89.0408 81.1937 88.9437C81.4495 88.7519 81.7052 88.5601 81.9688 88.3625C79.7309 86.1247 77.4931 83.8869 75.1875 81.5813C74.3355 82.0681 73.6418 82.4768 72.8867 83.0586C71.9554 83.747 70.9916 84.3501 69.9926 84.9355C69.7841 85.0577 69.7841 85.0577 69.5715 85.1824C68.9846 85.5224 68.4072 85.8433 67.7909 86.1283C67.1437 86.4793 66.7115 86.9002 66.2023 87.4301C66.033 87.6047 65.8637 87.7792 65.6892 87.9591C65.5628 88.0922 65.4365 88.2253 65.3063 88.3625C65.4466 88.4519 65.587 88.5413 65.7316 88.6334C67.2494 89.6574 68.4096 90.7768 68.7937 92.625C68.8408 93.3025 68.8385 93.9804 68.8422 94.6594C68.8462 94.8434 68.8502 95.0275 68.8543 95.2172C68.8553 95.3947 68.8563 95.5723 68.8573 95.7553C68.8591 95.9167 68.8609 96.0782 68.8628 96.2446C68.7714 96.8392 68.6544 97.0535 68.2125 97.4687C67.6419 97.5446 67.1436 97.5707 66.5728 97.5629C66.4055 97.5636 66.2381 97.5644 66.0657 97.5651C65.5118 97.5665 64.958 97.5624 64.4041 97.5581C64.0197 97.5576 63.6353 97.5574 63.2509 97.5575C62.445 97.5569 61.6392 97.5537 60.8333 97.5485C59.7992 97.5419 58.7653 97.5404 57.7313 97.5407C56.9375 97.5406 56.1436 97.5385 55.3498 97.5357C54.9685 97.5345 54.5872 97.5337 54.2059 97.5334C53.6734 97.5326 53.1409 97.5292 52.6084 97.525C52.3711 97.5253 52.3711 97.5253 52.1289 97.5256C51.383 97.5171 51.0228 97.5048 50.3875 97.0813C49.8767 95.5488 49.9447 92.9667 50.5812 91.4625C50.8328 91.0705 51.0902 90.6823 51.3563 90.3C51.1772 90.2973 51.1772 90.2973 50.9946 90.2945C46.8936 90.2175 42.7636 89.9092 38.8356 88.6507C37.9264 88.3587 37.9264 88.3587 37.0187 88.5562C37.2225 88.6641 37.4263 88.772 37.6363 88.8832C38.9426 89.6338 39.8915 90.7129 40.3314 92.1641C40.5402 93.0479 40.5637 93.9 40.5547 94.8047C40.5562 94.9575 40.5577 95.1104 40.5592 95.2679C40.5545 96.6797 40.5545 96.6797 40.1187 97.275C39.4914 97.5887 38.803 97.5008 38.1136 97.503C37.9462 97.5043 37.7789 97.5056 37.6066 97.5069C37.0516 97.5107 36.4967 97.513 35.9418 97.5149C35.7526 97.5157 35.5634 97.5165 35.3686 97.5173C34.3679 97.5214 33.3673 97.5241 32.3666 97.5259C31.3311 97.5281 30.2956 97.5348 29.2601 97.5424C28.4654 97.5475 27.6708 97.5491 26.8761 97.5498C26.4943 97.5508 26.1124 97.553 25.7306 97.5566C25.1971 97.5613 24.6638 97.5612 24.1303 97.5598C23.8924 97.5635 23.8924 97.5635 23.6498 97.5673C22.5812 97.5574 22.5812 97.5574 22.0991 97.1012C21.8853 96.6495 21.8287 96.3438 21.8222 95.8453C21.82 95.6838 21.8178 95.5222 21.8156 95.3558C21.8175 95.1859 21.8195 95.016 21.8215 94.841C21.8228 94.6671 21.8241 94.4933 21.8255 94.3142C21.8707 92.4426 22.2659 90.8462 23.65 89.525C24.9045 88.606 25.7646 88.3324 27.3312 88.3625C27.6536 85.4079 27.6536 85.4079 26.8363 82.6644C26.1003 81.9223 25.2428 81.4224 24.3325 80.9224C23.7708 80.5663 23.308 80.1568 22.8186 79.707C22.6469 79.55 22.4752 79.3931 22.2983 79.2313C22.1689 79.1117 22.0396 78.992 21.9062 78.8687C21.9045 79.2054 21.9045 79.2054 21.9028 79.5489C21.8917 81.6615 21.8776 83.7741 21.8606 85.8867C21.8519 86.9729 21.8443 88.059 21.8391 89.1452C21.8341 90.193 21.8263 91.2406 21.8165 92.2884C21.8133 92.6886 21.811 93.0888 21.8098 93.489C21.808 94.0486 21.8026 94.608 21.7963 95.1674C21.7967 95.417 21.7967 95.417 21.7971 95.6717C21.7791 96.8013 21.7791 96.8013 21.4551 97.2207C20.9309 97.6222 20.429 97.5407 19.7811 97.5391C19.5844 97.5393 19.5844 97.5393 19.3837 97.5394C19.1069 97.539 18.83 97.5371 18.5532 97.5339C18.1296 97.5293 17.7063 97.5299 17.2827 97.5312C15.2062 97.5229 15.2062 97.5229 14.5437 97.0813C14.3385 96.4655 14.3278 96.03 14.3311 95.3837C14.3316 95.1884 14.332 94.9932 14.3325 94.7921C14.3343 94.5445 14.3361 94.2969 14.3379 94.0418C14.3419 93.2546 14.3459 92.4673 14.35 91.6562C12.1761 91.6562 10.0022 91.6562 7.7625 91.6562C7.7778 93.2155 7.7778 93.2155 7.79741 94.7746C7.79838 94.9693 7.79934 95.1641 7.80034 95.3647C7.80338 95.663 7.80338 95.663 7.80649 95.9674C7.76167 96.51 7.6719 96.8224 7.375 97.275C6.52251 97.7012 5.37172 97.5127 4.42405 97.5153C3.99877 97.5172 3.57368 97.5232 3.14845 97.5293C2.87839 97.5306 2.60832 97.5316 2.33826 97.5323C2.09214 97.5341 1.84602 97.5359 1.59244 97.5378C0.981249 97.4687 0.981249 97.4687 0.657063 97.247C0.288072 96.731 0.32667 96.3474 0.32577 95.7162C0.324016 95.4697 0.322263 95.2233 0.320455 94.9693C0.321444 94.6942 0.322488 94.4192 0.323583 94.1441C0.322636 93.8531 0.321436 93.5621 0.320005 93.2711C0.316816 92.4695 0.31728 91.6678 0.318335 90.8662C0.318851 90.0024 0.31604 89.1386 0.313667 88.2749C0.309581 86.582 0.308707 84.8891 0.309052 83.1961C0.309305 81.8207 0.308571 80.4453 0.30713 79.0699C0.306724 78.6742 0.306318 78.2785 0.305912 77.8829C0.30571 77.686 0.305506 77.4891 0.305297 77.2862C0.301632 73.5596 0.301839 69.833 0.30316 66.1064C0.304241 62.6939 0.300205 59.2815 0.293791 55.8691C0.287263 52.3684 0.284315 48.8678 0.285212 45.3671C0.285647 43.4004 0.284619 41.4338 0.279807 39.4671C0.275746 37.7931 0.275029 36.1191 0.278702 34.445C0.280482 33.5903 0.28068 32.7356 0.276697 31.8809C0.273095 31.0992 0.273918 30.3177 0.278353 29.5361C0.27917 29.2526 0.278331 28.969 0.275719 28.6854C0.272422 28.3015 0.275612 27.9177 0.279175 27.5338C0.279122 27.3201 0.279067 27.1064 0.279012 26.8862C0.399998 26.3625 0.399998 26.3625 0.855999 26.0034C1.4632 25.7403 1.91278 25.7061 2.57363 25.7041C2.91642 25.7029 2.91642 25.7029 3.26614 25.7018C3.62166 25.7052 3.62166 25.7052 3.98437 25.7086C4.22139 25.7063 4.45841 25.7041 4.70261 25.7018C4.93114 25.7025 5.15967 25.7033 5.39512 25.7041C5.60304 25.7047 5.81096 25.7054 6.02518 25.706C6.68025 25.7917 7.04596 25.9627 7.56875 26.3625C7.77399 26.9782 7.7847 27.4138 7.78142 28.0601C7.78094 28.2553 7.78045 28.4505 7.77995 28.6517C7.77819 28.8993 7.77643 29.1469 7.77461 29.402C7.77061 30.1892 7.76662 30.9764 7.7625 31.7875C9.87244 31.7236 11.9824 31.6596 14.1562 31.5937C14.1969 30.1071 14.1969 30.1071 14.2314 28.6204C14.241 28.3408 14.241 28.3408 14.2509 28.0555C14.2559 27.8658 14.261 27.6761 14.2662 27.4806C14.3641 26.8532 14.5511 26.4811 14.9312 25.975C15.5943 25.754 16.1106 25.7622 16.8082 25.7691C17.0367 25.7709 17.2653 25.7726 17.5007 25.7744C17.7633 25.7778 17.7633 25.7778 18.0312 25.7812C18.0805 25.6726 18.1297 25.564 18.1803 25.452C19.6954 22.6191 22.694 20.162 25.2 18.225C25.4499 18.0238 25.4499 18.0238 25.7048 17.8186C26.8926 16.8687 26.8926 16.8687 27.3312 16.8687C27.3293 16.6207 27.3293 16.6207 27.3273 16.3677C27.3157 14.8084 27.3068 13.2491 27.3011 11.6897C27.2981 10.8881 27.294 10.0865 27.2874 9.28483C27.2811 8.51097 27.2776 7.73715 27.2761 6.96327C27.275 6.66826 27.2729 6.37326 27.2698 6.07826C27.2656 5.66453 27.265 5.25094 27.2653 4.83719C27.2633 4.48417 27.2633 4.48417 27.2614 4.12403C27.3716 3.13939 27.5655 2.59189 28.577 2.41512ZM36.825 11.0562C37.0168 11.344 37.0168 11.344 37.2125 11.6375C38.1453 11.5442 38.6853 11.4823 39.5375 11.0562C38.6424 11.0562 37.7472 11.0562 36.825 11.0562ZM65.1125 11.0562C65.4961 11.5038 65.8798 11.9514 66.275 12.4125C66.4046 12.5641 66.5342 12.7157 66.6678 12.8719C67.7168 14.0067 68.8332 14.6401 70.1916 15.324C71.273 15.8733 72.2536 16.5684 73.25 17.2562C73.5523 17.4587 73.855 17.6607 74.1579 17.8624C74.3146 17.9667 74.4712 18.071 74.6326 18.1784C74.7518 18.2577 74.8709 18.337 74.9938 18.4187C76.0154 17.402 77.0362 16.3846 78.0566 15.3666C78.4041 15.02 78.7518 14.6736 79.0997 14.3274C79.5984 13.8311 80.0964 13.3342 80.5943 12.8371C80.8295 12.6034 80.8295 12.6034 81.0695 12.3649C81.213 12.2214 81.3566 12.0779 81.5044 11.9301C81.6318 11.8031 81.7591 11.6762 81.8903 11.5455C82.1844 11.2932 82.1844 11.2932 82.1625 11.0562C76.536 11.0562 70.9095 11.0562 65.1125 11.0562ZM83.6181 13.2585C83.4947 13.3825 83.3712 13.5064 83.244 13.634C83.1043 13.7737 82.9647 13.9133 82.8209 14.0572C82.6693 14.2098 82.5177 14.3623 82.3615 14.5195C82.207 14.6743 82.0525 14.8292 81.8932 14.9887C81.3972 15.4857 80.9019 15.9835 80.4066 16.4812C80.0715 16.8173 79.7364 17.1534 79.4012 17.4894C78.5774 18.3153 77.7541 19.1418 76.9313 19.9687C77.1158 20.1858 77.3005 20.4027 77.4854 20.6194C77.5883 20.7402 77.6911 20.861 77.7971 20.9855C78.155 21.3951 78.5363 21.7725 78.9293 22.1484C80.4218 23.6285 81.6703 25.2833 82.8674 27.0052C83.251 27.5542 83.6238 28.0175 84.1 28.4937C84.1 23.3787 84.1 18.2637 84.1 12.9937C83.8648 12.9719 83.8648 12.9719 83.6181 13.2585ZM7.7625 38.7625C7.7625 40.8085 7.7625 42.8545 7.7625 44.9625C8.52975 44.9625 9.297 44.9625 10.0875 44.9625C10.1217 44.8022 10.1559 44.6419 10.1911 44.4768C10.3185 43.8803 10.446 43.2838 10.5735 42.6873C10.6286 42.4294 10.6837 42.1716 10.7387 41.9138C10.8179 41.5425 10.8974 41.1712 10.9768 40.7999C11.0245 40.5767 11.0722 40.3535 11.1213 40.1235C11.2213 39.6681 11.3307 39.2148 11.4437 38.7625C10.2289 38.7625 9.01412 38.7625 7.7625 38.7625ZM7.7625 51.9375C7.7625 53.9835 7.7625 56.0295 7.7625 58.1375C8.72156 58.1375 9.68062 58.1375 10.6687 58.1375C10.6092 57.7097 10.6092 57.7097 10.5484 57.2732C10.4957 56.8912 10.4429 56.5093 10.3902 56.1273C10.3641 55.9403 10.338 55.7532 10.3111 55.5605C10.1452 54.3545 10.0079 53.1495 9.89375 51.9375C9.19044 51.9375 8.48712 51.9375 7.7625 51.9375ZM7.7625 65.1125C7.7625 67.1585 7.7625 69.2045 7.7625 71.3125C9.93637 71.3125 12.1102 71.3125 14.35 71.3125C14.4243 68.7212 14.4243 68.7212 13.575 66.5777C13.1914 65.8524 13.1914 65.8524 12.8 65.1125C11.1376 65.1125 9.47525 65.1125 7.7625 65.1125ZM83.9062 71.3125C83.7104 71.6113 83.5223 71.9152 83.3371 72.2207C81.7434 74.7449 79.642 77.772 77.125 79.45C77.3884 80.0387 77.6847 80.4454 78.1403 80.8999C78.2677 81.0279 78.395 81.1558 78.5263 81.2876C78.6635 81.4235 78.8008 81.5593 78.9422 81.6993C79.0831 81.8401 79.224 81.981 79.3692 82.126C79.6666 82.4229 79.9645 82.7192 80.2628 83.0152C80.7214 83.4703 81.1785 83.9269 81.6354 84.3838C81.9243 84.6718 82.2132 84.9596 82.5023 85.2474C82.64 85.3848 82.7776 85.5222 82.9194 85.6638C83.0462 85.7893 83.1729 85.9148 83.3035 86.0441C83.4155 86.1554 83.5275 86.2666 83.6428 86.3812C83.8711 86.6404 83.8711 86.6404 84.1 86.6187C84.1 81.5677 84.1 76.5166 84.1 71.3125C84.0361 71.3125 83.9721 71.3125 83.9062 71.3125ZM7.7625 78.4813C7.7625 80.5272 7.7625 82.5732 7.7625 84.6812C9.93637 84.6812 12.1102 84.6812 14.35 84.6812C14.35 82.6353 14.35 80.5892 14.35 78.4813C12.1761 78.4813 10.0022 78.4813 7.7625 78.4813Z" fill="#4E4573"/>
<path id="Vector_2" d="M21.7125 34.1125C46.7121 34.1125 71.7116 34.1125 97.4687 34.1125C97.4687 35.0716 97.4687 36.0306 97.4687 37.0187C72.4692 37.0187 47.4696 37.0187 21.7125 37.0187C21.7125 36.0597 21.7125 35.1006 21.7125 34.1125Z" fill="#D2E5F7"/>
<path id="Vector_3" d="M21.7125 62.5938C46.6481 62.5938 71.5837 62.5938 97.275 62.5938C97.275 63.4889 97.275 64.384 97.275 65.3062C72.3394 65.3062 47.4037 65.3062 21.7125 65.3062C21.7125 64.4111 21.7125 63.516 21.7125 62.5938Z" fill="#D2E5F7"/>
<path id="Vector_4" d="M16.8687 28.3C17.6999 28.3 18.5311 28.3 19.3875 28.3C19.3875 50.3584 19.3875 72.4169 19.3875 95.1437C18.5563 95.1437 17.7251 95.1437 16.8687 95.1437C16.8687 73.0853 16.8687 51.0269 16.8687 28.3Z" fill="#FC909D"/>
<path id="Vector_5" d="M2.725 28.3C3.55619 28.3 4.38737 28.3 5.24375 28.3C5.24375 50.3584 5.24375 72.4169 5.24375 95.1437C4.41256 95.1437 3.58137 95.1437 2.725 95.1437C2.725 73.0853 2.725 51.0269 2.725 28.3Z" fill="#FC909D"/>
<path id="Vector_6" d="M21.7125 39.3438C23.6306 39.3438 25.5487 39.3438 27.525 39.3438C27.525 46.249 27.525 53.1542 27.525 60.2687C25.6069 60.2687 23.6887 60.2687 21.7125 60.2687C21.7125 53.3635 21.7125 46.4583 21.7125 39.3438Z" fill="#EEC389"/>
<path id="Vector_7" d="M45.1562 79.8375C45.8241 80.1249 46.2555 80.5022 46.7662 81.016C47.0105 81.2603 47.0105 81.2603 47.2597 81.5096C47.4337 81.6856 47.6077 81.8616 47.787 82.0429C47.9665 82.223 48.1461 82.4031 48.331 82.5886C48.8071 83.0662 49.282 83.5449 49.7567 84.0238C50.2417 84.5129 50.7279 85.0008 51.214 85.4888C52.1666 86.4456 53.1181 87.4037 54.0687 88.3625C53.0496 89.3928 52.1077 90.1582 50.613 90.247C50.1907 90.2477 49.7682 90.2408 49.3461 90.2273C49.1188 90.2233 48.8915 90.2192 48.6573 90.215C44.7215 90.099 40.953 89.3715 37.2125 88.1688C37.4926 87.5262 37.8419 87.1047 38.3376 86.6121C38.4889 86.4609 38.6401 86.3097 38.796 86.1539C38.9593 85.9926 39.1225 85.8313 39.2908 85.6651C39.4579 85.4985 39.6251 85.3319 39.7973 85.1602C40.3314 84.6283 40.8669 84.0977 41.4023 83.5672C41.7647 83.2068 42.127 82.8463 42.4892 82.4857C43.3772 81.6019 44.2663 80.7193 45.1562 79.8375Z" fill="#EFC389"/>
<path id="Vector_8" d="M27.525 16.675C27.525 21.7261 27.525 26.7771 27.525 31.9812C25.6069 31.9812 23.6887 31.9812 21.7125 31.9812C21.6398 29.293 21.6398 29.293 21.6199 28.4454C21.613 28.2261 21.6061 28.0068 21.599 27.7808C21.5929 27.5556 21.5868 27.3303 21.5805 27.0982C21.5727 26.5298 21.5727 26.5298 21.1312 26.1687C20.5694 26.1093 20.0234 26.0696 19.4602 26.0477C19.3048 26.0402 19.1495 26.0327 18.9894 26.025C18.6055 26.0067 18.2215 25.9906 17.8375 25.975C18.4384 24.795 19.2082 23.9196 20.1262 22.9719C20.2592 22.8323 20.3922 22.6926 20.5292 22.5488C20.9213 22.1385 21.3161 21.7311 21.7125 21.325C21.8332 21.2014 21.9538 21.0777 22.0781 20.9503C26.2978 16.675 26.2978 16.675 27.525 16.675Z" fill="#EEC289"/>
<path id="Vector_9" d="M73.6375 23.0687C74.7432 23.9885 75.7637 24.973 76.7791 25.9909C76.9449 26.1565 77.1107 26.3221 77.2815 26.4928C77.6294 26.8405 77.977 27.1885 78.3244 27.5367C78.859 28.0723 79.3945 28.6068 79.9302 29.1412C80.2685 29.4796 80.6066 29.818 80.9447 30.1565C81.1058 30.3172 81.2668 30.4778 81.4327 30.6433C81.5796 30.7908 81.7265 30.9383 81.8779 31.0903C82.0731 31.2858 82.0731 31.2858 82.2723 31.4852C82.55 31.7875 82.55 31.7875 82.55 31.9812C76.7317 31.9812 70.9134 31.9812 64.9187 31.9812C64.9187 31.8534 64.9187 31.7255 64.9187 31.5937C65.1974 31.319 65.1974 31.319 65.5863 30.9977C66.4996 30.2205 67.3435 29.3874 68.1883 28.5369C68.3452 28.3797 68.5021 28.2225 68.6638 28.0605C69.1597 27.5636 69.6548 27.066 70.15 26.5684C70.4883 26.2291 70.8266 25.8899 71.1649 25.5508C71.9896 24.724 72.8138 23.8966 73.6375 23.0687Z" fill="#EBC089"/>
<path id="Vector_10" d="M64.9187 67.6312C70.7371 67.6312 76.5554 67.6312 82.55 67.6312C81.2422 69.157 81.2422 69.157 80.5619 69.8351C80.4107 69.9863 80.2595 70.1375 80.1037 70.2932C79.9444 70.4515 79.7852 70.6098 79.621 70.7729C79.455 70.9387 79.2889 71.1045 79.1178 71.2753C78.5912 71.8008 78.064 72.3256 77.5367 72.8504C77.1779 73.2082 76.8192 73.5661 76.4605 73.924C75.5846 74.7977 74.7081 75.671 73.8312 76.5437C72.7255 75.624 71.705 74.6395 70.6896 73.6216C70.5238 73.456 70.358 73.2904 70.1872 73.1197C69.8393 72.772 69.4917 72.424 69.1443 72.0758C68.6098 71.5402 68.0742 71.0057 67.5385 70.4713C67.2003 70.1329 66.8621 69.7945 66.524 69.456C66.363 69.2953 66.2019 69.1347 66.036 68.9692C65.8891 68.8217 65.7422 68.6742 65.5909 68.5222C65.4607 68.3919 65.3306 68.2616 65.1965 68.1273C64.9187 67.825 64.9187 67.825 64.9187 67.6312Z" fill="#EDC189"/>
<path id="Vector_11" d="M63.175 12.6062C64.7008 13.9141 64.7008 13.9141 65.3789 14.5944C65.6056 14.8212 65.6056 14.8212 65.837 15.0525C65.9953 15.2118 66.1535 15.3711 66.3166 15.5352C66.4824 15.7013 66.6482 15.8674 66.819 16.0385C67.3445 16.565 67.8693 17.0923 68.3941 17.6195C68.752 17.9783 69.1098 18.3371 69.4677 18.6958C70.3415 19.5717 71.2147 20.4481 72.0875 21.325C71.1677 22.4307 70.1833 23.4512 69.1654 24.4666C68.9997 24.6324 68.8341 24.7982 68.6635 24.969C68.3158 25.3169 67.9678 25.6645 67.6196 26.0119C67.084 26.5465 66.5495 27.082 66.015 27.6177C65.6767 27.956 65.3382 28.2941 64.9997 28.6322C64.8391 28.7933 64.6785 28.9543 64.513 29.1202C64.3654 29.2671 64.2179 29.414 64.0659 29.5654C63.8705 29.7606 63.8705 29.7606 63.6711 29.9598C63.3687 30.2375 63.3687 30.2375 63.175 30.2375C63.175 24.4192 63.175 18.6009 63.175 12.6062Z" fill="#ECC089"/>
<path id="Vector_12" d="M63.175 69.375C64.703 70.6847 64.703 70.6847 65.3641 71.333C65.5121 71.4778 65.66 71.6227 65.8124 71.7719C66.4724 72.4231 67.1319 73.0748 67.7898 73.7282C68.1379 74.0731 68.4871 74.417 68.8373 74.7598C69.3438 75.2558 69.8471 75.7548 70.3498 76.2546C70.5076 76.408 70.6654 76.5614 70.828 76.7195C70.971 76.8631 71.114 77.0067 71.2614 77.1546C71.3885 77.2802 71.5157 77.4057 71.6467 77.5351C71.8937 77.9 71.8937 77.9 71.8854 78.2808C71.6412 78.8001 71.3234 79.1226 70.9163 79.5278C70.7501 79.6945 70.584 79.8612 70.4128 80.033C70.2322 80.2113 70.0515 80.3895 69.8654 80.5731C69.6793 80.7587 69.4932 80.9444 69.3073 81.1302C68.9179 81.5187 68.5276 81.9062 68.1365 82.293C67.6341 82.7898 67.1335 83.2884 66.6334 83.7876C66.2496 84.1707 65.8652 84.5532 65.4806 84.9354C65.2056 85.2088 64.9308 85.4823 64.656 85.7559C64.4898 85.9202 64.3236 86.0845 64.1525 86.2538C64.0055 86.3994 63.8585 86.5451 63.707 86.6952C63.3687 87.0063 63.3687 87.0063 63.175 87.0063C63.175 81.1879 63.175 75.3696 63.175 69.375Z" fill="#EDC189"/>
<path id="Vector_13" d="M63.175 41.0875C63.8735 41.4367 64.2278 41.7015 64.7703 42.2359C64.9299 42.3924 65.0895 42.5489 65.2539 42.7102C65.4243 42.8795 65.5947 43.0488 65.7702 43.2233C66.0337 43.4842 66.0337 43.4842 66.3026 43.7504C66.6733 44.1183 67.0435 44.4866 67.413 44.8556C67.8873 45.3288 68.3645 45.7987 68.8426 46.268C69.2979 46.7162 69.7499 47.1678 70.2022 47.619C70.3745 47.7875 70.5469 47.9561 70.7244 48.1297C70.881 48.2875 71.0375 48.4452 71.1988 48.6077C71.338 48.7459 71.4773 48.8842 71.6207 49.0266C71.8937 49.4188 71.8937 49.4188 71.8871 49.8063C71.6466 50.3045 71.3461 50.6158 70.9519 51.0048C70.7935 51.1625 70.6351 51.3203 70.4719 51.4828C70.2997 51.6513 70.1276 51.8199 69.9502 51.9935C69.6868 52.255 69.6868 52.255 69.4181 52.5217C68.9516 52.9844 68.4839 53.4459 68.0156 53.9068C67.3551 54.5572 66.6965 55.2096 66.0381 55.8621C65.6875 56.2095 65.3363 56.5562 64.9844 56.9023C64.7468 57.1371 64.7468 57.1371 64.5044 57.3766C64.3643 57.5145 64.2242 57.6524 64.0798 57.7945C63.7418 58.1197 63.7418 58.1197 63.5625 58.525C63.4346 58.525 63.3067 58.525 63.175 58.525C63.175 52.7706 63.175 47.0163 63.175 41.0875Z" fill="#ECC189"/>
<path id="Vector_14" d="M86.425 4.85625C87.3841 4.85625 88.3431 4.85625 89.3312 4.85625C89.3312 13.8075 89.3312 22.7587 89.3312 31.9812C88.3722 31.9812 87.4131 31.9812 86.425 31.9812C86.425 23.03 86.425 14.0787 86.425 4.85625Z" fill="#D0E2F5"/>
<path id="Vector_15" d="M21.7125 67.6312C23.6306 67.6312 25.5487 67.6312 27.525 67.6312C27.525 72.7462 27.525 77.8612 27.525 83.1312C26.6333 82.7746 26.0069 82.3647 25.2727 81.775C25.1119 81.6495 25.1119 81.6495 24.948 81.5215C24.713 81.335 24.4832 81.1419 24.2578 80.9439C23.8382 80.5885 23.8382 80.5885 23.284 80.3061C22.5812 79.8483 22.067 79.437 21.7125 78.675C21.3714 76.9567 21.5014 75.163 21.5662 73.4225C21.5881 72.7693 21.5978 72.1159 21.6084 71.4624C21.63 70.1844 21.6717 68.9093 21.7125 67.6312Z" fill="#EEC289"/>
<path id="Vector_16" d="M45.1562 23.2625C45.8029 23.5438 46.2259 23.8975 46.7214 24.3962C46.8747 24.5494 47.0279 24.7027 47.1858 24.8606C47.3495 25.0263 47.5132 25.192 47.6818 25.3627C47.8514 25.5328 48.0209 25.7029 48.1956 25.8782C48.6455 26.3299 49.0945 26.7824 49.5432 27.2353C49.9991 27.6952 50.4562 28.154 50.9131 28.613C51.717 29.4207 52.5201 30.2292 53.3223 31.0385C53.635 31.3534 53.9487 31.6674 54.2625 31.9812C48.3802 31.9812 42.498 31.9812 36.4375 31.9812C39.3437 29.075 42.25 26.1687 45.1562 23.2625Z" fill="#ECC189"/>
<path id="Vector_17" d="M74.025 51.55C74.3238 51.8338 74.3238 51.8338 74.6424 52.2267C75.3647 53.0881 76.1368 53.8804 76.9343 54.6719C77.0772 54.8146 77.2201 54.9572 77.3674 55.1042C77.8189 55.5547 78.2712 56.0045 78.7234 56.4543C79.0297 56.7596 79.336 57.065 79.6422 57.3704C80.3137 58.04 80.9856 58.7092 81.6579 59.3779C81.9557 59.6745 82.2528 59.9716 82.55 60.2687C76.7317 60.2687 70.9134 60.2687 64.9187 60.2687C66.2276 58.7417 66.2276 58.7417 66.8799 58.0827C67.0253 57.9354 67.1707 57.7881 67.3206 57.6363C67.4738 57.4823 67.627 57.3282 67.7849 57.1695C68.0255 56.9273 68.0255 56.9273 68.2709 56.6801C68.6079 56.3413 68.9451 56.0028 69.2826 55.6646C69.8006 55.1447 70.3164 54.6228 70.8323 54.1009C71.1605 53.7714 71.4888 53.4421 71.8173 53.1129C71.9717 52.9561 72.1261 52.7993 72.2852 52.6377C72.4288 52.4947 72.5724 52.3517 72.7204 52.2043C72.8464 52.0776 72.9723 51.9509 73.1022 51.8204C73.4437 51.55 73.4437 51.55 74.025 51.55Z" fill="#EFC389"/>
<path id="Vector_18" d="M55.8125 69.375C55.8125 75.1294 55.8125 80.8837 55.8125 86.8125C54.2867 85.5047 54.2867 85.5047 53.6264 84.8422C53.4791 84.6949 53.3318 84.5475 53.1801 84.3958C53.026 84.2407 52.872 84.0857 52.7133 83.9259C52.5518 83.7642 52.3903 83.6024 52.2239 83.4357C51.7122 82.923 51.2012 82.4095 50.6902 81.8961C50.3418 81.5466 49.9932 81.1972 49.6447 80.8479C48.7938 79.9949 47.9436 79.1414 47.0937 78.2875C47.381 77.621 47.7573 77.1884 48.2692 76.6775C48.4314 76.5147 48.5937 76.3518 48.7609 76.184C48.9363 76.01 49.1117 75.836 49.2924 75.6567C49.472 75.4772 49.6516 75.2977 49.8366 75.1127C50.216 74.7337 50.596 74.3552 50.9766 73.9773C51.4653 73.4918 51.9528 73.0051 52.4399 72.5178C52.9039 72.054 53.3686 71.5909 53.8334 71.1278C54.0092 70.9523 54.1849 70.7767 54.366 70.5958C54.6085 70.3552 54.6085 70.3552 54.8559 70.1097C54.9989 69.9675 55.1418 69.8252 55.2891 69.6787C55.6187 69.375 55.6187 69.375 55.8125 69.375Z" fill="#EFC389"/>
<path id="Vector_19" d="M34.8875 69.375C36.4133 70.6828 36.4133 70.6828 37.0736 71.3453C37.2209 71.4926 37.3682 71.64 37.5199 71.7917C37.674 71.9468 37.828 72.1018 37.9867 72.2616C38.1482 72.4233 38.3097 72.5851 38.4761 72.7518C38.9878 73.2645 39.4988 73.778 40.0098 74.2914C40.3582 74.6409 40.7068 74.9903 41.0553 75.3396C41.9062 76.1926 42.7564 77.0461 43.6062 77.9C43.319 78.5665 42.9427 78.9991 42.4308 79.51C42.2686 79.6728 42.1063 79.8357 41.9391 80.0035C41.7637 80.1775 41.5883 80.3515 41.4076 80.5308C41.228 80.7103 41.0484 80.8898 40.8634 81.0748C40.484 81.4538 40.104 81.8323 39.7234 82.2102C39.2346 82.6957 38.7472 83.1824 38.2601 83.6697C37.7961 84.1335 37.3314 84.5966 36.8666 85.0597C36.6908 85.2352 36.5151 85.4108 36.334 85.5917C36.1723 85.7521 36.0106 85.9125 35.8441 86.0778C35.7011 86.22 35.5582 86.3622 35.4109 86.5088C35.0812 86.8125 35.0812 86.8125 34.8875 86.8125C34.8875 81.0581 34.8875 75.3038 34.8875 69.375Z" fill="#EFC389"/>
<path id="Vector_20" d="M36.6313 67.6312C42.3856 67.6312 48.14 67.6312 54.0688 67.6312C52.7609 69.157 52.7609 69.157 52.0984 69.8173C51.9511 69.9646 51.8038 70.1119 51.652 70.2637C51.497 70.4177 51.3419 70.5718 51.1822 70.7305C51.0204 70.892 50.8586 71.0535 50.692 71.2199C50.1792 71.7316 49.6658 72.2425 49.1523 72.7535C48.8029 73.102 48.4535 73.4505 48.1041 73.7991C47.2512 74.6499 46.3977 75.5002 45.5437 76.35C44.8773 76.0628 44.4447 75.6865 43.9338 75.1746C43.7709 75.0123 43.6081 74.8501 43.4403 74.6829C43.2663 74.5075 43.0923 74.3321 42.913 74.1514C42.7335 73.9718 42.5539 73.7922 42.369 73.6071C41.9899 73.2277 41.6115 72.8477 41.2336 72.4672C40.7481 71.9784 40.2613 71.4909 39.7741 71.0038C39.3102 70.5399 38.8472 70.0751 38.3841 69.6104C38.1207 69.3467 38.1207 69.3467 37.8521 69.0777C37.6916 68.916 37.5312 68.7544 37.3659 68.5878C37.2237 68.4449 37.0815 68.3019 36.935 68.1546C36.6313 67.825 36.6313 67.825 36.6313 67.6312Z" fill="#EEC389"/>
<path id="Vector_21" d="M45.1562 51.55C45.8227 51.8372 46.2553 52.2135 46.7662 52.7254C46.9291 52.8877 47.092 53.0499 47.2597 53.2171C47.4337 53.3925 47.6077 53.5679 47.787 53.7486C47.9665 53.9282 48.1461 54.1078 48.331 54.2929C48.7101 54.6723 49.0885 55.0523 49.4664 55.4328C49.9519 55.9216 50.4387 56.4091 50.9259 56.8962C51.3898 57.3601 51.8528 57.8249 52.3159 58.2896C52.4915 58.4654 52.6671 58.6412 52.8479 58.8223C53.0084 58.9839 53.1688 59.1456 53.3341 59.3122C53.4763 59.4551 53.6185 59.5981 53.765 59.7454C54.0688 60.075 54.0688 60.075 54.0688 60.2687C48.3144 60.2687 42.56 60.2687 36.6313 60.2687C37.9391 58.743 37.9391 58.743 38.6016 58.0827C38.7489 57.9354 38.8962 57.7881 39.048 57.6363C39.203 57.4823 39.3581 57.3282 39.5178 57.1695C39.6796 57.008 39.8414 56.8465 40.008 56.6801C40.5208 56.1684 41.0342 55.6575 41.5477 55.1465C41.8971 54.798 42.2465 54.4495 42.5959 54.1009C43.4488 53.2501 44.3023 52.3998 45.1562 51.55Z" fill="#EFC389"/>
<path id="Vector_22" d="M84.1 41.0875C84.1 46.8419 84.1 52.5963 84.1 58.525C82.5742 57.2172 82.5742 57.2172 81.9139 56.5547C81.7666 56.4074 81.6193 56.26 81.4676 56.1083C81.3135 55.9532 81.1595 55.7982 81.0008 55.6384C80.8393 55.4767 80.6778 55.3149 80.5114 55.1482C79.9997 54.6355 79.4887 54.122 78.9777 53.6086C78.6293 53.2591 78.2807 52.9097 77.9322 52.5604C77.0813 51.7074 76.2311 50.8539 75.3812 50C75.6685 49.3335 76.0448 48.9009 76.5567 48.39C76.7189 48.2272 76.8812 48.0643 77.0484 47.8965C77.2238 47.7225 77.3992 47.5485 77.5799 47.3692C77.7595 47.1897 77.9391 47.0102 78.1241 46.8252C78.5035 46.4462 78.8835 46.0677 79.2641 45.6898C79.7528 45.2043 80.2403 44.7176 80.7274 44.2303C81.1914 43.7665 81.6561 43.3034 82.1209 42.8403C82.2967 42.6648 82.4724 42.4892 82.6535 42.3083C82.896 42.0677 82.896 42.0677 83.1434 41.8222C83.2864 41.68 83.4293 41.5378 83.5766 41.3912C83.9062 41.0875 83.9062 41.0875 84.1 41.0875Z" fill="#EEC389"/>
<path id="Vector_23" d="M55.8125 41.0875C55.8125 46.8419 55.8125 52.5963 55.8125 58.525C54.2867 57.2172 54.2867 57.2172 53.6264 56.5547C53.4791 56.4074 53.3318 56.26 53.1801 56.1083C53.026 55.9532 52.872 55.7982 52.7133 55.6384C52.5518 55.4767 52.3903 55.3149 52.2239 55.1482C51.7122 54.6355 51.2012 54.122 50.6902 53.6086C50.3418 53.2591 49.9932 52.9097 49.6447 52.5604C48.7938 51.7074 47.9436 50.8539 47.0937 50C47.381 49.3335 47.7573 48.9009 48.2692 48.39C48.4314 48.2272 48.5937 48.0643 48.7609 47.8965C48.9363 47.7225 49.1117 47.5485 49.2924 47.3692C49.472 47.1897 49.6516 47.0102 49.8366 46.8252C50.216 46.4462 50.596 46.0677 50.9766 45.6898C51.4653 45.2043 51.9528 44.7176 52.4399 44.2303C52.9039 43.7665 53.3686 43.3034 53.8334 42.8403C54.0092 42.6648 54.1849 42.4892 54.366 42.3083C54.6085 42.0677 54.6085 42.0677 54.8559 41.8222C54.9989 41.68 55.1418 41.5378 55.2891 41.3912C55.6187 41.0875 55.6187 41.0875 55.8125 41.0875Z" fill="#EFC389"/>
<path id="Vector_24" d="M34.8875 41.0875C36.4133 42.3953 36.4133 42.3953 37.0736 43.0578C37.2209 43.2051 37.3682 43.3525 37.5199 43.5042C37.674 43.6593 37.828 43.8143 37.9867 43.9741C38.1482 44.1358 38.3097 44.2976 38.4761 44.4643C38.9878 44.977 39.4988 45.4905 40.0098 46.0039C40.3582 46.3534 40.7068 46.7028 41.0553 47.0521C41.9062 47.9051 42.7564 48.7586 43.6062 49.6125C43.319 50.279 42.9427 50.7116 42.4308 51.2225C42.2686 51.3853 42.1063 51.5482 41.9391 51.716C41.7637 51.89 41.5883 52.064 41.4076 52.2433C41.228 52.4228 41.0484 52.6023 40.8634 52.7873C40.484 53.1663 40.104 53.5448 39.7234 53.9227C39.2346 54.4082 38.7472 54.8949 38.2601 55.3822C37.7961 55.846 37.3314 56.3091 36.8666 56.7722C36.6908 56.9477 36.5151 57.1233 36.334 57.3042C36.1723 57.4646 36.0106 57.625 35.8441 57.7903C35.7011 57.9325 35.5582 58.0748 35.4109 58.2213C35.0812 58.525 35.0812 58.525 34.8875 58.525C34.8875 52.7706 34.8875 47.0163 34.8875 41.0875Z" fill="#EFC389"/>
<path id="Vector_25" d="M64.9187 39.3438C70.6731 39.3438 76.4275 39.3438 82.3562 39.3438C81.0484 40.8695 81.0484 40.8695 80.3859 41.5298C80.2386 41.6771 80.0913 41.8244 79.9395 41.9762C79.7845 42.1302 79.6294 42.2843 79.4697 42.443C79.3079 42.6045 79.1461 42.766 78.9795 42.9324C78.4667 43.4441 77.9533 43.955 77.4398 44.466C77.0904 44.8145 76.741 45.163 76.3916 45.5116C75.5387 46.3624 74.6852 47.2127 73.8312 48.0625C73.1648 47.7753 72.7322 47.399 72.2213 46.8871C72.0584 46.7248 71.8955 46.5626 71.7278 46.3954C71.5538 46.22 71.3798 46.0446 71.2005 45.8639C71.021 45.6843 70.8414 45.5047 70.6565 45.3196C70.2774 44.9402 69.899 44.5602 69.5211 44.1797C69.0356 43.6909 68.5488 43.2034 68.0616 42.7163C67.5977 42.2524 67.1347 41.7876 66.6716 41.3229C66.4082 41.0592 66.4082 41.0592 66.1396 40.7902C65.9791 40.6285 65.8187 40.4669 65.6534 40.3003C65.5112 40.1574 65.369 40.0144 65.2225 39.8671C64.9187 39.5375 64.9187 39.5375 64.9187 39.3438Z" fill="#EFC389"/>
<path id="Vector_26" d="M36.6313 39.3438C42.3856 39.3438 48.14 39.3438 54.0688 39.3438C52.7609 40.8695 52.7609 40.8695 52.0984 41.5298C51.9511 41.6771 51.8038 41.8244 51.652 41.9762C51.497 42.1302 51.3419 42.2843 51.1822 42.443C51.0204 42.6045 50.8586 42.766 50.692 42.9324C50.1792 43.4441 49.6658 43.955 49.1523 44.466C48.8029 44.8145 48.4535 45.163 48.1041 45.5116C47.2512 46.3624 46.3977 47.2127 45.5437 48.0625C44.8773 47.7753 44.4447 47.399 43.9338 46.8871C43.7709 46.7248 43.6081 46.5626 43.4403 46.3954C43.2663 46.22 43.0923 46.0446 42.913 45.8639C42.7335 45.6843 42.5539 45.5047 42.369 45.3196C41.9899 44.9402 41.6115 44.5602 41.2336 44.1797C40.7481 43.6909 40.2613 43.2034 39.7741 42.7163C39.3102 42.2524 38.8472 41.7876 38.3841 41.3229C38.1207 41.0592 38.1207 41.0592 37.8521 40.7902C37.6916 40.6285 37.5312 40.4669 37.3659 40.3003C37.2237 40.1574 37.0815 40.0144 36.935 39.8671C36.6313 39.5375 36.6313 39.5375 36.6313 39.3438Z" fill="#EFC389"/>
<path id="Vector_27" d="M55.8125 12.8C55.8125 18.5544 55.8125 24.3087 55.8125 30.2375C54.2867 28.9297 54.2867 28.9297 53.6264 28.2672C53.4791 28.1199 53.3318 27.9725 53.1801 27.8208C53.026 27.6657 52.872 27.5107 52.7133 27.3509C52.5518 27.1892 52.3903 27.0274 52.2239 26.8607C51.7122 26.348 51.2012 25.8345 50.6902 25.3211C50.3418 24.9716 49.9932 24.6222 49.6447 24.2729C48.7938 23.4199 47.9436 22.5664 47.0937 21.7125C47.381 21.046 47.7573 20.6134 48.2692 20.1025C48.4314 19.9397 48.5937 19.7768 48.7609 19.609C48.9363 19.435 49.1117 19.261 49.2924 19.0817C49.472 18.9022 49.6516 18.7227 49.8366 18.5377C50.216 18.1587 50.596 17.7802 50.9766 17.4023C51.4653 16.9168 51.9528 16.4301 52.4399 15.9428C52.9039 15.479 53.3686 15.0159 53.8334 14.5528C54.0092 14.3773 54.1849 14.2017 54.366 14.0208C54.6085 13.7802 54.6085 13.7802 54.8559 13.5347C54.9989 13.3925 55.1418 13.2502 55.2891 13.1037C55.6187 12.8 55.6187 12.8 55.8125 12.8Z" fill="#EFC389"/>
<path id="Vector_28" d="M34.8875 12.8C36.4133 14.1078 36.4133 14.1078 37.0736 14.7703C37.2209 14.9176 37.3682 15.065 37.5199 15.2167C37.674 15.3718 37.828 15.5268 37.9867 15.6866C38.1482 15.8483 38.3097 16.0101 38.4761 16.1768C38.9878 16.6895 39.4988 17.203 40.0098 17.7164C40.3582 18.0659 40.7068 18.4153 41.0553 18.7646C41.9062 19.6176 42.7564 20.4711 43.6062 21.325C43.319 21.9915 42.9427 22.4241 42.4308 22.935C42.2686 23.0978 42.1063 23.2607 41.9391 23.4285C41.7637 23.6025 41.5883 23.7765 41.4076 23.9558C41.228 24.1353 41.0484 24.3148 40.8634 24.4998C40.484 24.8788 40.104 25.2573 39.7234 25.6352C39.2346 26.1207 38.7472 26.6074 38.2601 27.0947C37.7961 27.5585 37.3314 28.0216 36.8666 28.4847C36.6908 28.6602 36.5151 28.8358 36.334 29.0167C36.1723 29.1771 36.0106 29.3375 35.8441 29.5028C35.7011 29.645 35.5582 29.7872 35.4109 29.9338C35.0812 30.2375 35.0812 30.2375 34.8875 30.2375C34.8875 24.4831 34.8875 18.7287 34.8875 12.8Z" fill="#EFC389"/>
<path id="Vector_29" d="M42.9243 10.9995C43.2471 11.0006 43.5698 11.0014 43.8926 11.002C44.7351 11.0042 45.5775 11.0099 46.42 11.0163C47.2824 11.0223 48.1449 11.0249 49.0074 11.0279C50.6945 11.0341 52.3816 11.044 54.0687 11.0562C53.1604 12.1482 52.1894 13.1548 51.1822 14.1555C51.0204 14.317 50.8586 14.4785 50.692 14.6449C50.1792 15.1566 49.6658 15.6675 49.1523 16.1785C48.8029 16.527 48.4535 16.8755 48.1041 17.2241C47.2512 18.0749 46.3977 18.9252 45.5437 19.775C44.9126 19.4979 44.4916 19.1593 44.0049 18.6738C43.8576 18.5277 43.7102 18.3816 43.5584 18.231C43.3228 17.9943 43.3228 17.9943 43.0825 17.7527C42.9202 17.5908 42.7579 17.4288 42.5906 17.262C42.2482 16.9198 41.9062 16.5771 41.5647 16.234C41.0397 15.7069 40.5128 15.182 39.9855 14.6573C39.6534 14.3249 39.3214 13.9924 38.9895 13.6598C38.8309 13.5019 38.6723 13.3441 38.5089 13.1815C38.364 13.0354 38.2191 12.8892 38.0698 12.7387C37.9413 12.6099 37.8129 12.4812 37.6805 12.3485C37.4062 12.025 37.4062 12.025 37.4062 11.6375C39.2368 10.9775 41.0094 10.9804 42.9243 10.9995Z" fill="#EEC389"/>
<path id="Vector_30" d="M58.1375 4.85625C59.0326 4.85625 59.9277 4.85625 60.85 4.85625C60.85 13.8075 60.85 22.7587 60.85 31.9812C59.9549 31.9812 59.0597 31.9812 58.1375 31.9812C58.1375 23.03 58.1375 14.0787 58.1375 4.85625Z" fill="#D2E5F7"/>
<path id="Vector_31" d="M29.85 4.85625C30.7451 4.85625 31.6402 4.85625 32.5625 4.85625C32.5625 13.8075 32.5625 22.7587 32.5625 31.9812C31.6674 31.9812 30.7722 31.9812 29.85 31.9812C29.85 23.03 29.85 14.0787 29.85 4.85625Z" fill="#D2E5F7"/>
<path id="Vector_32" d="M21.7125 34.1125C46.7121 34.1125 71.7116 34.1125 97.4687 34.1125C97.4687 35.0716 97.4687 36.0306 97.4687 37.0187C91.3947 37.0187 85.3206 37.0187 79.0625 37.0187C79.0625 36.1236 79.0625 35.2285 79.0625 34.3062C60.137 34.3062 41.2115 34.3062 21.7125 34.3062C21.7125 34.2423 21.7125 34.1784 21.7125 34.1125Z" fill="#9EC1E4"/>
<path id="Vector_33" d="M86.425 39.3438C87.3841 39.3438 88.3431 39.3438 89.3312 39.3438C89.3312 46.249 89.3312 53.1542 89.3312 60.2687C88.3722 60.2687 87.4131 60.2687 86.425 60.2687C86.425 53.3635 86.425 46.4583 86.425 39.3438Z" fill="#D2E5F7"/>
<path id="Vector_34" d="M58.1375 39.3438C59.0966 39.3438 60.0556 39.3438 61.0437 39.3438C61.0437 46.249 61.0437 53.1542 61.0437 60.2687C60.0847 60.2687 59.1256 60.2687 58.1375 60.2687C58.1375 53.3635 58.1375 46.4583 58.1375 39.3438Z" fill="#D2E5F7"/>
<path id="Vector_35" d="M86.425 67.6312C87.3841 67.6312 88.3431 67.6312 89.3312 67.6312C89.3312 74.4726 89.3312 81.3139 89.3312 88.3625C88.3722 88.3625 87.4131 88.3625 86.425 88.3625C86.425 81.5212 86.425 74.6799 86.425 67.6312Z" fill="#D3E6F8"/>
<path id="Vector_36" d="M58.1375 67.6312C59.0966 67.6312 60.0556 67.6312 61.0437 67.6312C61.0437 74.4726 61.0437 81.3139 61.0437 88.3625C60.0847 88.3625 59.1256 88.3625 58.1375 88.3625C58.1375 81.5212 58.1375 74.6799 58.1375 67.6312Z" fill="#D3E6F8"/>
<path id="Vector_37" d="M29.6562 67.6312C30.6153 67.6312 31.5744 67.6312 32.5625 67.6312C32.5625 74.4726 32.5625 81.3139 32.5625 88.3625C31.6034 88.3625 30.6444 88.3625 29.6562 88.3625C29.6562 81.5212 29.6562 74.6799 29.6562 67.6312Z" fill="#D3E6F8"/>
<path id="Vector_38" d="M27.2595 90.6563C27.4458 90.6544 27.6321 90.6526 27.8241 90.6506C28.0261 90.6498 28.2281 90.649 28.4362 90.6481C28.7474 90.6465 28.7474 90.6465 29.0648 90.6448C29.5045 90.643 29.9443 90.6417 30.384 90.641C31.0555 90.6391 31.7268 90.6331 32.3983 90.627C32.8254 90.6257 33.2525 90.6247 33.6796 90.6239C33.9803 90.6203 33.9803 90.6203 34.287 90.6167C35.4937 90.6204 36.4056 90.7095 37.3374 91.5594C38.3587 92.8711 38.1812 93.2482 38.1812 95.1437C33.5777 95.1437 28.9742 95.1437 24.2312 95.1437C24.2312 92.6637 24.2312 92.6637 24.8125 91.85C25.5876 91.0914 26.1687 90.6651 27.2595 90.6563Z" fill="#7AA9EF"/>
<path id="Vector_39" d="M85.0733 90.5846C85.2787 90.5838 85.4841 90.5831 85.6957 90.5823C86.1292 90.5818 86.5627 90.5832 86.9962 90.5865C87.6566 90.5906 88.3166 90.5865 88.977 90.5815C89.3994 90.582 89.8217 90.583 90.244 90.5846C90.44 90.583 90.636 90.5814 90.838 90.5798C92.0363 90.5955 92.9915 90.7503 93.9812 91.4625C95.0256 92.7157 94.7562 93.3232 94.7562 95.1437C90.2167 95.1437 85.6771 95.1437 81 95.1437C81 92.2579 81 92.2579 81.775 91.4625C82.821 90.5612 83.726 90.5738 85.0733 90.5846Z" fill="#7AAAF0"/>
<path id="Vector_40" d="M55.591 90.6343C55.8704 90.6315 55.8704 90.6315 56.1555 90.6287C56.4555 90.629 56.4555 90.629 56.7616 90.6292C56.9684 90.6284 57.1753 90.6276 57.3885 90.6267C57.8259 90.6256 58.2633 90.6255 58.7008 90.6263C59.3688 90.627 60.0367 90.6224 60.7047 90.6175C61.13 90.6171 61.5554 90.6169 61.9807 90.6171C62.2796 90.6144 62.2796 90.6144 62.5844 90.6117C63.7848 90.6194 64.7061 90.7085 65.6249 91.5662C66.7013 92.9738 66.4687 92.9091 66.4687 95.1438C61.9292 95.1438 57.3896 95.1438 52.7125 95.1438C52.7125 92.4313 52.7125 92.4313 53.2453 91.6078C53.9505 90.9169 54.6055 90.6397 55.591 90.6343Z" fill="#7AAAEF"/>
<path id="Vector_41" d="M29.85 39.3438C30.7451 39.3438 31.6402 39.3438 32.5625 39.3438C32.5625 46.249 32.5625 53.1542 32.5625 60.2687C31.6674 60.2687 30.7722 60.2687 29.85 60.2687C29.85 53.3635 29.85 46.4583 29.85 39.3438Z" fill="#D2E5F7"/>
<path id="Vector_42" d="M79.0625 62.5938C85.0726 62.5938 91.0827 62.5938 97.275 62.5938C97.275 63.4889 97.275 64.384 97.275 65.3062C91.2649 65.3062 85.2547 65.3062 79.0625 65.3062C79.0625 64.4111 79.0625 63.516 79.0625 62.5938Z" fill="#A4CFF2"/>
<path id="Vector_43" d="M16.8687 82.9375C17.6999 82.9375 18.5311 82.9375 19.3875 82.9375C19.3875 86.9656 19.3875 90.9936 19.3875 95.1437C18.5563 95.1437 17.7251 95.1437 16.8687 95.1437C16.8687 91.1157 16.8687 87.0876 16.8687 82.9375Z" fill="#E7667C"/>
<path id="Vector_44" d="M2.725 82.9375C3.55619 82.9375 4.38737 82.9375 5.24375 82.9375C5.24375 86.9656 5.24375 90.9936 5.24375 95.1437C4.41256 95.1437 3.58137 95.1437 2.725 95.1437C2.725 91.1157 2.725 87.0876 2.725 82.9375Z" fill="#E7667C"/>
<path id="Vector_45" d="M9.89375 51.9375C11.4283 51.9375 12.9627 51.9375 14.5437 51.9375C14.5437 54.0474 14.5437 56.1574 14.5437 58.3312C13.265 58.3312 11.9863 58.3312 10.6688 58.3312C10.4136 57.3107 10.2017 56.383 10.0633 55.3523C10.0308 55.1191 9.99834 54.8858 9.96489 54.6455C9.88187 53.7463 9.89375 52.8405 9.89375 51.9375Z" fill="#ECC189"/>
<path id="Vector_46" d="M84.1 69.375C84.3379 71.1159 83.7662 72.0736 82.7437 73.4437C82.5396 73.7303 82.5396 73.7303 82.3313 74.0227C81.3649 75.3358 80.3039 76.5473 79.1957 77.7426C79.0636 77.8866 78.9315 78.0306 78.7954 78.179C78.6685 78.3134 78.5416 78.4479 78.4109 78.5864C78.2984 78.7064 78.1859 78.8263 78.07 78.9499C77.6517 79.3022 77.2519 79.4663 76.7375 79.6437C76.2899 79.1962 75.8424 78.7486 75.3812 78.2875C75.7364 77.5772 76.0078 77.2253 76.5567 76.6775C76.7189 76.5147 76.8812 76.3518 77.0484 76.184C77.2238 76.01 77.3992 75.836 77.5799 75.6567C77.7595 75.4772 77.9391 75.2977 78.1241 75.1127C78.5035 74.7337 78.8835 74.3552 79.2641 73.9773C79.7528 73.4918 80.2403 73.0051 80.7274 72.5178C81.1914 72.054 81.6561 71.5909 82.1209 71.1278C82.2967 70.9523 82.4724 70.7767 82.6535 70.5958C82.896 70.3552 82.896 70.3552 83.1434 70.1097C83.2864 69.9675 83.4293 69.8252 83.5766 69.6787C83.9062 69.375 83.9062 69.375 84.1 69.375Z" fill="#EDC189"/>
<path id="Vector_47" d="M11.4437 38.5687C12.4667 38.5687 13.4897 38.5687 14.5437 38.5687C14.5437 40.6787 14.5437 42.7886 14.5437 44.9625C13.0732 44.9625 11.6026 44.9625 10.0875 44.9625C10.6397 40.1769 10.6397 40.1769 11.4437 38.5687Z" fill="#ECC189"/>
<path id="Vector_48" d="M76.919 20.2054C77.3657 20.374 77.5912 20.5563 77.9265 20.8936C78.0929 21.0598 78.0929 21.0598 78.2627 21.2293C78.4368 21.4085 78.4368 21.4085 78.6145 21.5914C78.7957 21.7759 78.7957 21.7759 78.9806 21.9641C83.9806 27.1117 83.9806 27.1117 84.1378 28.932C84.1252 29.3671 84.1126 29.8023 84.1 30.2375C83.0081 29.3292 82.0015 28.3582 81.0008 27.3509C80.8393 27.1892 80.6778 27.0274 80.5114 26.8607C79.9997 26.348 79.4887 25.8345 78.9777 25.3211C78.6293 24.9716 78.2807 24.6222 77.9322 24.2729C77.0813 23.4199 76.2311 22.5664 75.3812 21.7125C76.1406 20.1165 76.1406 20.1165 76.919 20.2054Z" fill="#EBC089"/>
<path id="Vector_49" d="M86.425 39.3438C87.3841 39.3438 88.3431 39.3438 89.3312 39.3438C89.3312 46.249 89.3312 53.1542 89.3312 60.2687C89.2673 60.2687 89.2034 60.2687 89.1375 60.2687C89.1375 55.2177 89.1375 50.1666 89.1375 44.9625C88.2424 44.9625 87.3472 44.9625 86.425 44.9625C86.425 43.1083 86.425 41.2541 86.425 39.3438Z" fill="#A4C9EB"/>
<path id="Vector_50" d="M58.1375 39.3438C59.0966 39.3438 60.0556 39.3438 61.0437 39.3438C61.0437 46.249 61.0437 53.1542 61.0437 60.2687C60.9798 60.2687 60.9159 60.2687 60.85 60.2687C60.85 55.2177 60.85 50.1666 60.85 44.9625C59.9549 44.9625 59.0597 44.9625 58.1375 44.9625C58.1375 43.1083 58.1375 41.2541 58.1375 39.3438Z" fill="#9EC2E5"/>
<path id="Vector_51" d="M86.425 67.6312C87.3841 67.6312 88.3431 67.6312 89.3312 67.6312C89.3312 74.4726 89.3312 81.3139 89.3312 88.3625C89.2673 88.3625 89.2034 88.3625 89.1375 88.3625C89.1375 83.3754 89.1375 78.3882 89.1375 73.25C88.2424 73.25 87.3472 73.25 86.425 73.25C86.425 71.3958 86.425 69.5416 86.425 67.6312Z" fill="#A3C8EA"/>
<path id="Vector_52" d="M58.1375 67.6312C59.0966 67.6312 60.0556 67.6312 61.0437 67.6312C61.0437 74.4726 61.0437 81.3139 61.0437 88.3625C60.9798 88.3625 60.9159 88.3625 60.85 88.3625C60.85 83.3754 60.85 78.3882 60.85 73.25C59.9549 73.25 59.0597 73.25 58.1375 73.25C58.1375 71.3958 58.1375 69.5416 58.1375 67.6312Z" fill="#9EC1E4"/>
<path id="Vector_53" d="M29.6562 67.6312C30.6153 67.6312 31.5744 67.6312 32.5625 67.6312C32.5625 69.4854 32.5625 71.3396 32.5625 73.25C31.6674 73.25 30.7722 73.25 29.85 73.25C29.85 78.2371 29.85 83.2242 29.85 88.3625C29.7861 88.3625 29.7221 88.3625 29.6562 88.3625C29.6562 81.5212 29.6562 74.6799 29.6562 67.6312Z" fill="#9CBFE2"/>
<path id="Vector_54" d="M7.56875 73.6375C9.8705 73.6375 12.1722 73.6375 14.5437 73.6375C14.5437 74.4687 14.5437 75.2999 14.5437 76.1562C12.242 76.1562 9.94025 76.1562 7.56875 76.1562C7.56875 75.3251 7.56875 74.4939 7.56875 73.6375Z" fill="#D1657E"/>
<path id="Vector_55" d="M7.56875 87.0062C9.8705 87.0062 12.1722 87.0062 14.5437 87.0062C14.5437 87.7735 14.5437 88.5407 14.5437 89.3312C12.242 89.3312 9.94025 89.3312 7.56875 89.3312C7.56875 88.564 7.56875 87.7967 7.56875 87.0062Z" fill="#DF687F"/>
<path id="Vector_56" d="M7.56875 60.4625C9.8705 60.4625 12.1722 60.4625 14.5437 60.4625C14.5437 61.2298 14.5437 61.997 14.5437 62.7875C12.242 62.7875 9.94025 62.7875 7.56875 62.7875C7.56875 62.0203 7.56875 61.253 7.56875 60.4625Z" fill="#DF687F"/>
<path id="Vector_57" d="M7.56875 47.2875C9.8705 47.2875 12.1722 47.2875 14.5437 47.2875C14.5437 48.0547 14.5437 48.822 14.5437 49.6125C12.242 49.6125 9.94025 49.6125 7.56875 49.6125C7.56875 48.8452 7.56875 48.078 7.56875 47.2875Z" fill="#E5667C"/>
<path id="Vector_58" d="M7.56875 34.1125C9.8705 34.1125 12.1722 34.1125 14.5437 34.1125C14.5437 34.8797 14.5437 35.647 14.5437 36.4375C12.242 36.4375 9.94025 36.4375 7.56875 36.4375C7.56875 35.6702 7.56875 34.903 7.56875 34.1125Z" fill="#DE677E"/>
<path id="Vector_59" d="M29.85 39.3438C30.7451 39.3438 31.6402 39.3438 32.5625 39.3438C32.5625 41.1979 32.5625 43.0521 32.5625 44.9625C31.6674 44.9625 30.7722 44.9625 29.85 44.9625C29.85 43.1083 29.85 41.2541 29.85 39.3438Z" fill="#A4CFF2"/>
<path id="Vector_60" d="M73.4437 79.8375C74.2737 80.2028 74.6355 80.6822 75.1875 81.3875C73.5591 82.6745 71.9103 83.8679 70.1137 84.9113C69.9585 85.0022 69.8033 85.0931 69.6434 85.1867C68.9161 85.6001 68.2854 85.9508 67.4375 86.0375C68.5626 84.6582 69.8328 83.427 71.0945 82.1746C71.3226 81.9475 71.5507 81.7203 71.7787 81.4931C72.3332 80.9407 72.8883 80.3889 73.4437 79.8375Z" fill="#EBC089"/>
<path id="Vector_61" d="M68.0188 14.1562C69.0201 14.4446 69.854 14.8878 70.7434 15.4156C70.8863 15.4999 71.0293 15.5841 71.1766 15.671C72.5311 16.4857 73.7713 17.4195 74.9938 18.4187C74.6101 18.8663 74.2265 19.3139 73.8313 19.775C73.0251 19.3719 72.5009 18.8849 71.8786 18.2545C71.7679 18.1437 71.6572 18.0329 71.5431 17.9187C71.3101 17.6852 71.0776 17.4511 70.8455 17.2167C70.4887 16.8562 70.1303 16.4974 69.7716 16.1388C69.5455 15.9117 69.3194 15.6845 69.0935 15.4572C68.9857 15.3493 68.8779 15.2413 68.7669 15.1301C68.0188 14.3725 68.0188 14.3725 68.0188 14.1562Z" fill="#E9BF89"/>
<path id="Vector_62" d="M7.56875 47.2875C8.71962 47.2875 9.8705 47.2875 11.0562 47.2875C11.0562 48.0547 11.0562 48.822 11.0562 49.6125C9.90537 49.6125 8.7545 49.6125 7.56875 49.6125C7.56875 48.8452 7.56875 48.078 7.56875 47.2875Z" fill="#F98F9D"/>
<path id="Vector_63" d="M7.7625 87.0062C8.84944 87.0062 9.93637 87.0062 11.0562 87.0062C11.0562 87.7096 11.0562 88.4129 11.0562 89.1375C9.96931 89.1375 8.88237 89.1375 7.7625 89.1375C7.7625 88.4342 7.7625 87.7309 7.7625 87.0062Z" fill="#FC909D"/>
<path id="Vector_64" d="M7.7625 73.8313C8.84944 73.8313 9.93637 73.8313 11.0562 73.8313C11.0562 74.5346 11.0562 75.2379 11.0562 75.9625C9.96931 75.9625 8.88237 75.9625 7.7625 75.9625C7.7625 75.2592 7.7625 74.5559 7.7625 73.8313Z" fill="#FC909D"/>
<path id="Vector_65" d="M7.7625 60.6562C8.84944 60.6562 9.93637 60.6562 11.0562 60.6562C11.0562 61.3596 11.0562 62.0629 11.0562 62.7875C9.96931 62.7875 8.88237 62.7875 7.7625 62.7875C7.7625 62.0842 7.7625 61.3809 7.7625 60.6562Z" fill="#FC909D"/>
<path id="Vector_66" d="M7.7625 34.1125C8.84944 34.1125 9.93637 34.1125 11.0562 34.1125C11.0562 34.8158 11.0562 35.5191 11.0562 36.2437C9.96931 36.2437 8.88237 36.2437 7.7625 36.2437C7.7625 35.5404 7.7625 34.8371 7.7625 34.1125Z" fill="#FC909D"/>
<path id="Vector_67" d="M12.8 65.1125C13.3754 65.1125 13.9509 65.1125 14.5437 65.1125C14.5437 66.2634 14.5437 67.4143 14.5437 68.6C13.9378 67.994 13.6952 67.5214 13.3449 66.7473C13.2423 66.5232 13.1396 66.2992 13.0339 66.0684C12.8 65.5 12.8 65.5 12.8 65.1125Z" fill="#E9BF89"/>
</g>
<defs>
<clipPath id="clip0_2_5">
<rect width="99.2" height="99.2" fill="white" transform="translate(0.4 0.4)"/>
</clipPath>
</defs>
</svg>