<svg width="64" height="64" viewBox="0 0 64 64" fill="none" xmlns="http://www.w3.org/2000/svg">
<g id="mingcute:search-fill" clip-path="url(#clip0_3_97)">
<g id="Group">
<path id="Vector" d="M28 5.33333C32.2559 5.33305 36.4259 6.53095 40.0328 8.78995C43.6397 11.0489 46.5377 14.2778 48.3953 18.1069C50.2528 21.9361 50.9948 26.2108 50.5363 30.4419C50.0778 34.6731 48.4373 38.6896 45.8027 42.032L55.5413 51.7707C56.0271 52.2736 56.2959 52.9472 56.2898 53.6464C56.2837 54.3456 56.0033 55.0144 55.5089 55.5088C55.0144 56.0033 54.3456 56.2837 53.6464 56.2898C52.9472 56.2959 52.2736 56.0271 51.7707 55.5413L42.032 45.8027C39.1932 48.0399 35.8605 49.5658 32.3121 50.2531C28.7636 50.9404 25.1022 50.7691 21.6334 49.7536C18.1646 48.7381 14.9889 46.9077 12.3713 44.4153C9.75373 41.9228 7.77016 38.8405 6.58608 35.4256C5.402 32.0106 5.05176 28.362 5.56456 24.7841C6.07736 21.2063 7.43835 17.8029 9.53397 14.858C11.6296 11.9131 14.3991 9.51206 17.6114 7.85518C20.8236 6.1983 24.3856 5.33364 28 5.33333ZM28 10.6667C23.4029 10.6667 18.9941 12.4929 15.7435 15.7435C12.4929 18.9941 10.6667 23.4029 10.6667 28C10.6667 32.5971 12.4929 37.0059 15.7435 40.2565C18.9941 43.5071 23.4029 45.3333 28 45.3333C32.5971 45.3333 37.0059 43.5071 40.2565 40.2565C43.5072 37.0059 45.3333 32.5971 45.3333 28C45.3333 23.4029 43.5072 18.9941 40.2565 15.7435C37.0059 12.4929 32.5971 10.6667 28 10.6667ZM28 13.3333C31.8898 13.3333 35.6204 14.8786 38.3709 17.6291C41.1214 20.3796 42.6667 24.1102 42.6667 28C42.6667 31.8898 41.1214 35.6204 38.3709 38.3709C35.6204 41.1214 31.8898 42.6667 28 42.6667C24.1102 42.6667 20.3796 41.1214 17.6291 38.3709C14.8786 35.6204 13.3333 31.8898 13.3333 28C13.3333 24.1102 14.8786 20.3796 17.6291 17.6291C20.3796 14.8786 24.1102 13.3333 28 13.3333Z" fill="black"/>
</g>
</g>
<defs>
<clipPath id="clip0_3_97">
<rect width="64" height="64" fill="white"/>
</clipPath>
</defs>
</svg>
