<svg width="64" height="64" viewBox="0 0 64 64" fill="none" xmlns="http://www.w3.org/2000/svg">
<g id="fluent:box-16-filled">
<path id="Vector" d="M16.144 9.952L42.588 21.284L32 25.82L5.708 14.552C6.3 13.948 7.024 13.46 7.848 13.144L16.144 9.952ZM21.496 7.896L27.696 5.512C30.4678 4.44643 33.5362 4.44643 36.308 5.512L56.156 13.144C56.976 13.464 57.7 13.944 58.292 14.552L47.668 19.104L21.496 7.896ZM59.976 18.184L34 29.316V59.116C34.7885 58.983 35.5617 58.7713 36.308 58.484L56.156 50.848C57.2875 50.4123 58.2605 49.644 58.9467 48.6443C59.6329 47.6446 60.0001 46.4605 60 45.248V18.744C60.0007 18.557 59.9914 18.37 59.972 18.184H59.976ZM30 59.116V29.316L4.028 18.184C4.00997 18.3701 4.00063 18.557 4 18.744V45.248C4.00016 46.461 4.36797 47.6455 5.05492 48.6452C5.74188 49.6449 6.71571 50.4129 7.848 50.848L27.692 58.484C28.444 58.772 29.216 58.984 30 59.116Z" fill="black"/>
</g>
</svg>
