<svg xmlns="http://www.w3.org/2000/svg" width="28" height="28" viewBox="0 0 28 28">
            <g clipPath="url(#clip0_250_223)">
                <path fill-rule="evenodd" clip-rule="evenodd" d="M2.625 3.0625C2.625 2.7144 2.48672 2.38056 2.24058 2.13442C1.99444 1.88828 1.6606 1.75 1.3125 1.75C0.964403 1.75 0.630564 1.88828 0.384422 2.13442C0.138281 2.38056 0 2.7144 0 3.0625L0 24.9375C0 25.662 0.588 26.25 1.3125 26.25H26.6875C27.0356 26.25 27.3694 26.1117 27.6156 25.8656C27.8617 25.6194 28 25.2856 28 24.9375C28 24.5894 27.8617 24.2556 27.6156 24.0094C27.3694 23.7633 27.0356 23.625 26.6875 23.625H2.625V3.0625ZM27.615 7.49C27.8468 7.24119 27.9731 6.91211 27.9671 6.57209C27.9611 6.23206 27.8233 5.90763 27.5828 5.66716C27.3424 5.42669 27.0179 5.28894 26.6779 5.28294C26.3379 5.27694 26.0088 5.40316 25.76 5.635L17.5 13.895L13.1775 9.5725C12.9314 9.32671 12.5978 9.18865 12.25 9.18865C11.9022 9.18865 11.5686 9.32671 11.3225 9.5725L5.635 15.26C5.40316 15.5088 5.27694 15.8379 5.28294 16.1779C5.28894 16.5179 5.42669 16.8424 5.66716 17.0828C5.90763 17.3233 6.23206 17.4611 6.57209 17.4671C6.91211 17.4731 7.24119 17.3468 7.49 17.115L12.25 12.355L16.5725 16.6775C16.8186 16.9233 17.1522 17.0613 17.5 17.0613C17.8478 17.0613 18.1814 16.9233 18.4275 16.6775L27.615 7.49Z" fill="#343B3F"/>
            </g>
            <defs>
                <clipPath id="clip0_250_223">
                <rect width="28" height="28" fill="white"/>
                </clipPath>
            </defs>
        </svg>