<?xml version="1.0" standalone="no"?>
<!DOCTYPE svg PUBLIC "-//W3C//DTD SVG 20010904//EN"
 "http://www.w3.org/TR/2001/REC-SVG-20010904/DTD/svg10.dtd">
<svg version="1.0" xmlns="http://www.w3.org/2000/svg"
 width="512.000000pt" height="512.000000pt" viewBox="0 0 512.000000 512.000000"
 preserveAspectRatio="xMidYMid meet">

<g transform="translate(0.000000,512.000000) scale(0.100000,-0.100000)"
fill="#000000" stroke="none">
<path d="M1270 4855 c-252 -54 -452 -221 -547 -455 -56 -139 -54 -60 -51
-1873 l3 -1672 23 -70 c88 -260 273 -438 532 -512 62 -17 132 -18 1330 -18
1421 0 1310 -6 1476 76 187 92 320 250 386 459 l23 75 0 1695 0 1695 -23 75
c-80 256 -265 437 -527 516 -56 17 -136 19 -1310 21 -1039 1 -1261 -1 -1315
-12z m2545 -512 c52 -28 89 -68 114 -123 20 -45 21 -57 21 -1660 0 -1603 -1
-1615 -21 -1660 -25 -55 -62 -95 -114 -123 l-40 -22 -1215 0 -1215 0 -40 22
c-52 28 -89 68 -114 123 -20 45 -21 57 -21 1660 0 1603 1 1615 21 1660 32 72
85 118 159 141 14 4 565 7 1225 6 l1200 -2 40 -22z"/>
<path d="M1760 3815 c-59 -19 -123 -73 -150 -130 -64 -132 13 -308 152 -345
23 -7 320 -9 820 -8 869 3 807 -2 879 70 131 132 73 360 -105 413 -72 22
-1527 21 -1596 0z"/>
<path d="M1735 2786 c-95 -45 -147 -125 -147 -226 0 -96 49 -176 137 -223 40
-22 44 -22 650 -22 606 0 610 0 650 22 52 28 100 78 120 128 22 51 22 139 0
193 -23 57 -101 126 -159 141 -31 7 -227 11 -623 11 l-578 0 -50 -24z"/>
<path d="M1742 1775 c-96 -42 -154 -130 -154 -234 0 -76 28 -138 85 -186 73
-63 103 -67 494 -63 l348 3 53 30 c89 49 139 143 129 240 -10 94 -61 165 -147
204 -43 20 -64 21 -410 20 -292 0 -371 -3 -398 -14z"/>
</g>
</svg>
