<svg width="64" height="64" viewBox="0 0 64 64" fill="none" xmlns="http://www.w3.org/2000/svg">
<g id="fluent:note-add-48-filled">
<path id="Vector" d="M32 17.3333C32 25.4333 25.4333 32 17.3333 32C9.23332 32 2.66666 25.4333 2.66666 17.3333C2.66666 9.23333 9.23332 2.66667 17.3333 2.66667C25.4333 2.66667 32 9.23333 32 17.3333ZM18.6667 8C18.6667 7.64638 18.5262 7.30724 18.2761 7.05719C18.0261 6.80714 17.6869 6.66667 17.3333 6.66667C16.9797 6.66667 16.6406 6.80714 16.3905 7.05719C16.1405 7.30724 16 7.64638 16 8V16H7.99999C7.64637 16 7.30723 16.1405 7.05718 16.3905C6.80713 16.6406 6.66666 16.9797 6.66666 17.3333C6.66666 17.687 6.80713 18.0261 7.05718 18.2761C7.30723 18.5262 7.64637 18.6667 7.99999 18.6667H16V26.6667C16 27.0203 16.1405 27.3594 16.3905 27.6095C16.6406 27.8595 16.9797 28 17.3333 28C17.6869 28 18.0261 27.8595 18.2761 27.6095C18.5262 27.3594 18.6667 27.0203 18.6667 26.6667V18.6667H26.6667C27.0203 18.6667 27.3594 18.5262 27.6095 18.2761C27.8595 18.0261 28 17.687 28 17.3333C28 16.9797 27.8595 16.6406 27.6095 16.3905C27.3594 16.1405 27.0203 16 26.6667 16H18.6667V8ZM17.3333 34.6667C26.9067 34.6667 34.6667 26.9067 34.6667 17.3333C34.6667 13.8973 33.6667 10.6933 31.9413 8H47.6667C49.8768 8 51.9964 8.87797 53.5592 10.4408C55.122 12.0036 56 14.1232 56 16.3333V34.6667H43C40.7898 34.6667 38.6702 35.5446 37.1074 37.1074C35.5446 38.6702 34.6667 40.7899 34.6667 43V56H16.3333C14.1232 56 12.0036 55.122 10.4408 53.5592C8.87796 51.9964 7.99999 49.8768 7.99999 47.6667V31.9413C10.7855 33.7257 14.0253 34.6718 17.3333 34.6667ZM55.2627 38H43C41.6739 38 40.4021 38.5268 39.4645 39.4645C38.5268 40.4021 38 41.6739 38 43V55.2627C38.9175 54.8482 39.7524 54.2709 40.464 53.5587L53.5587 40.4653C54.271 39.7533 54.8483 38.918 55.2627 38Z" fill="black"/>
</g>
</svg>
